<?xml version="1.0" encoding="UTF-8"?>
<svg id="Layer_1" data-name="Layer 1" xmlns="http://www.w3.org/2000/svg" xmlns:xlink="http://www.w3.org/1999/xlink" viewBox="0 0 1600 400">
  <defs>
    <style>
      .cls-1 {
        fill: url(#linear-gradient);
      }

      .cls-2 {
        fill: #231f20;
      }
    </style>
    <linearGradient id="linear-gradient" x1="130" y1="198.81" x2="1462.65" y2="198.81" gradientUnits="userSpaceOnUse">
      <stop offset="0" stop-color="#3b82f6"/>
      <stop offset="1" stop-color="#a855f7"/>
    </linearGradient>
  </defs>
  <g>
    <path class="cls-2" d="M318.48,55.4c-9.48-10.4-20.88-18.65-34.19-24.75-13.31-6.1-28.14-9.15-44.47-9.15s-30.61,2.9-44.02,8.7c-13.42,5.8-25.01,13.75-34.79,23.85-9.79,10.1-17.4,21.55-22.84,34.35-5.45,12.8-8.17,26.3-8.17,40.5s2.57,27.15,7.71,40.05c5.14,12.9,12.5,24.5,22.09,34.8,9.58,10.3,21.03,18.5,34.34,24.6,13.31,6.1,28.14,9.15,44.47,9.15s30.86-2.95,44.17-8.85c13.31-5.9,24.86-13.9,34.64-24,9.78-10.1,17.34-21.55,22.69-34.35,5.34-12.8,8.02-26.2,8.02-40.2s-2.57-26.85-7.71-39.75-12.46-24.55-21.93-34.95Zm-33.13,94.05c-1.92,6.7-4.84,12.8-8.77,18.3-3.93,5.5-9.03,9.85-15.28,13.05-6.25,3.2-13.61,4.8-22.09,4.8s-15.78-1.55-21.93-4.65c-6.15-3.1-11.25-7.3-15.28-12.6-4.04-5.3-7.06-11.3-9.08-18-2.02-6.7-3.03-13.65-3.03-20.85s.95-13.85,2.87-20.55c1.91-6.7,4.89-12.7,8.92-18,4.03-5.3,9.12-9.55,15.28-12.75,6.15-3.2,13.46-4.8,21.93-4.8s15.53,1.5,21.78,4.5c6.25,3,11.39,7.15,15.43,12.45,4.03,5.3,7.06,11.25,9.08,17.85,2.01,6.6,3.03,13.5,3.03,20.7s-.96,13.85-2.87,20.55Z"/>
    <path class="cls-2" d="M492.74,75.2c-9.48,0-18.45,2.85-26.93,8.55-8.47,5.7-15.53,13.85-21.18,24.45v-27.9h-52.64V236h57.48v-93.6c4.43-5.6,11.19-9.6,20.27-12,9.08-2.4,19.16-3.6,30.25-3.6v-51.6h-2.57c-.91,0-2.47,0-4.69,0Z"/>
    <path class="cls-2" d="M694.53,100.62c-6.66-7.27-14.42-12.88-23.3-16.82-8.88-3.93-18.66-5.9-29.35-5.9-11.9,0-22.04,2.26-30.4,6.79-8.37,4.52-15.38,11.02-21.03,19.47v-23.86h-49.92v219.6h57.48v-86.86c4.64,8.46,11.19,14.9,19.66,19.33,8.47,4.43,18.46,6.64,29.95,6.64,13.11,0,24.76-3.54,34.94-10.62,10.18-7.08,18.2-16.72,24.05-28.91,5.85-12.2,8.77-26.06,8.77-41.61,0-11.61-1.82-22.23-5.45-31.87-3.63-9.64-8.77-18.09-15.43-25.37Zm-39.93,69.93c-1.41,4.03-3.43,7.58-6.05,10.66-2.62,3.07-5.7,5.47-9.23,7.2-3.53,1.73-7.41,2.59-11.65,2.59s-7.97-1-11.8-3c-3.83-2-7.31-4.75-10.44-8.27-3.13-3.52-5.6-7.46-7.41-11.84,0,0,0-26.85,0-26.85,1.82-2.62,3.78-4.86,5.9-6.73,2.12-1.87,4.28-3.41,6.5-4.63,2.22-1.21,4.59-2.15,7.11-2.8,2.52-.66,5.09-.98,7.71-.98,4.64,0,8.87,.77,12.71,2.31,3.83,1.54,7.16,3.69,9.98,6.48,2.82,2.78,4.99,6.1,6.5,9.94,1.51,3.84,2.27,8.17,2.27,12.97s-.71,8.93-2.12,12.96Z"/>
    <path class="cls-2" d="M910.84,97.37c-3.23-5.7-8.17-10.37-14.82-14.01-6.66-3.64-15.63-5.46-26.93-5.46s-21.23,2.21-30.4,6.64c-9.18,4.42-16.59,10.86-22.24,19.32V17h-57.48V236h57.48v-87.01c1.82-4.35,4.33-8.14,7.56-11.35,3.22-3.22,6.6-5.67,10.14-7.38,3.53-1.7,6.5-2.55,8.92-2.55,5.24,0,9.63,1.71,13.16,5.12,3.53,3.42,5.29,8.93,5.29,16.54v86.64h57.48v-102.06c0-5.7-.56-11.8-1.66-18.29-1.11-6.49-3.28-12.59-6.5-18.29Z"/>
    <path class="cls-2" d="M1457.06,127.91c-3.73-9.74-9.28-18.34-16.64-25.81-7.36-7.47-16.44-13.37-27.23-17.7-10.79-4.33-23.35-6.49-37.67-6.49s-26.62,2.17-37.51,6.49c-10.89,4.33-20.02,10.23-27.38,17.7-7.36,7.47-12.91,16.08-16.64,25.81-3.73,9.74-5.6,19.92-5.6,30.54s1.86,20.76,5.6,30.39c3.73,9.64,9.27,18.24,16.64,25.81,7.36,7.58,16.49,13.52,27.38,17.85,10.89,4.33,23.39,6.49,37.51,6.49s26.87-2.17,37.67-6.49c10.79-4.33,19.86-10.27,27.23-17.85,7.36-7.57,12.91-16.18,16.64-25.81,3.73-9.64,5.6-19.77,5.6-30.39s-1.87-20.8-5.6-30.54Zm-57.03,47.97c-2.42,4.9-5.75,8.64-9.98,11.24-4.24,2.59-9.08,3.89-14.52,3.89s-10.29-1.29-14.52-3.89c-4.24-2.59-7.56-6.34-9.98-11.24-2.42-4.89-3.63-10.71-3.63-17.43s1.21-12.53,3.63-17.43c2.42-4.89,5.75-8.64,9.98-11.23,4.24-2.59,9.08-3.89,14.52-3.89s10.29,1.3,14.52,3.89c4.24,2.59,7.56,6.34,9.98,11.23,2.42,4.9,3.63,10.71,3.63,17.43s-1.21,12.53-3.63,17.43Z"/>
    <path class="cls-2" d="M992.4,79.4c7.74,0,14-6.26,14.01-13.98,0-7.72-6.25-13.98-13.98-13.98-7.74,0-14,6.26-14.01,14,0,7.72,6.25,13.98,13.98,13.96Z"/>
    <path class="cls-2" d="M1195.52,80.3v24.45c-5.65-8.46-12.67-15.05-21.03-19.77-8.37-4.72-18.5-7.08-30.4-7.08-10.49,0-20.23,1.97-29.2,5.9-8.97,3.94-16.79,9.55-23.44,16.82-6.66,7.28-11.8,15.74-15.43,25.37-3.63,9.64-5.45,20.26-5.45,31.87s1.67,22.38,5,32.31c3.32,9.93,8.05,18.54,14.21,25.81,6.16,7.28,13.36,12.94,21.64,16.97,8.27,4.03,17.24,6.05,26.92,6.05,23.79,0,40.34-8.65,49.62-25.96,.21,6.15,.32,15.11-.26,25.96-.27,4.96-.31,8.45-1.01,13-.45,2.85-.99,5.44-1.53,7.66,.15-.57,.29-1.15,.43-1.73-.2,.89-.42,1.78-.66,2.66-.09,.36-.19,.72-.29,1.08-.01,.03-.02,.06-.02,.08-.9,3.21-1.99,6.34-3.25,9.38,0,.01,0,.02-.01,.03-.63,1.36-1.09,2.16-1.71,3.87,0,.01-.01,.02-.01,.03-2.14,4.51-4.66,8.81-7.52,12.84,0,0-.01,0-.01,.01-.05,.03-.08,.06-.11,.09-.29,.27-.51,.63-.67,.99h0c-15.29,20.86-39.79,34.39-67.34,34.39-44.85,0-81.83-34.65-84.2-78.88-.08-1.49-.12-3-.12-4.5v-17.62c4.36-28.42,21.29-53.09,21.29-53.09-26.73-20.58-40.93-58.36-46.76-77.77v45.5c3.3,1.3,5.64,4.5,5.65,8.26,0,4.91-4,8.89-8.9,8.89s-8.89-3.98-8.89-8.89c-.01-3.76,2.34-6.96,5.64-8.26v-45.5c-5.83,19.41-20.03,57.18-46.76,77.76,0,0,17.47,25.47,21.49,54.45v16.27c0,2.52,.06,5.07,.2,7.57,3.99,74.61,66.09,133.05,141.36,133.05,54.4,0,101.71-31.18,125.24-76.74,3.91-7.06,8.5-16.8,11.91-28.88,4.15-14.67,4.78-26.5,5.05-33,.97-24.25,1.1-83.17-.75-161.7h-49.92Zm-7.56,95.56c-2.42,3.37-5.04,6.17-7.87,8.41-2.83,2.24-5.86,3.93-9.07,5.05-3.23,1.12-6.66,1.68-10.29,1.68-6.25,0-11.76-1.34-16.49-4.03-4.74-2.69-8.43-6.39-11.04-11.09-2.62-4.71-3.93-10.23-3.93-16.57,0-4.6,.7-8.92,2.11-12.95,1.4-4.03,3.43-7.59,6.05-10.66,2.62-3.08,5.7-5.48,9.23-7.21,3.52-1.72,7.41-2.59,11.65-2.59,3.02,0,6,.52,8.92,1.57,2.92,1.05,5.7,2.56,8.32,4.56,2.62,1.99,5,4.37,7.11,7.12,2.12,2.76,3.89,5.75,5.3,8.97v27.74Zm-2.07,80.73c.39-1.8,.72-3.61,1-5.44-.27,1.83-.6,3.65-1,5.44Z"/>
  </g>
  <g>
    <path class="cls-1" d="M318.48,55.4c-9.48-10.4-20.88-18.65-34.19-24.75-13.31-6.1-28.14-9.15-44.47-9.15s-30.61,2.9-44.02,8.7c-13.42,5.8-25.01,13.75-34.79,23.85-9.79,10.1-17.4,21.55-22.84,34.35-5.45,12.8-8.17,26.3-8.17,40.5s2.57,27.15,7.71,40.05c5.14,12.9,12.5,24.5,22.09,34.8,9.58,10.3,21.03,18.5,34.34,24.6,13.31,6.1,28.14,9.15,44.47,9.15s30.86-2.95,44.17-8.85c13.31-5.9,24.86-13.9,34.64-24,9.78-10.1,17.34-21.55,22.69-34.35,5.34-12.8,8.02-26.2,8.02-40.2s-2.57-26.85-7.71-39.75-12.46-24.55-21.93-34.95Zm-33.13,94.05c-1.92,6.7-4.84,12.8-8.77,18.3-3.93,5.5-9.03,9.85-15.28,13.05-6.25,3.2-13.61,4.8-22.09,4.8s-15.78-1.55-21.93-4.65c-6.15-3.1-11.25-7.3-15.28-12.6-4.04-5.3-7.06-11.3-9.08-18-2.02-6.7-3.03-13.65-3.03-20.85s.95-13.85,2.87-20.55c1.91-6.7,4.89-12.7,8.92-18,4.03-5.3,9.12-9.55,15.28-12.75,6.15-3.2,13.46-4.8,21.93-4.8s15.53,1.5,21.78,4.5c6.25,3,11.39,7.15,15.43,12.45,4.03,5.3,7.06,11.25,9.08,17.85,2.01,6.6,3.03,13.5,3.03,20.7s-.96,13.85-2.87,20.55Z"/>
    <path class="cls-1" d="M492.74,75.2c-9.48,0-18.45,2.85-26.93,8.55-8.47,5.7-15.53,13.85-21.18,24.45v-27.9h-52.64V236h57.48v-93.6c4.43-5.6,11.19-9.6,20.27-12,9.08-2.4,19.16-3.6,30.25-3.6v-51.6h-2.57c-.91,0-2.47,0-4.69,0Z"/>
    <path class="cls-1" d="M694.53,100.62c-6.66-7.27-14.42-12.88-23.3-16.82-8.88-3.93-18.66-5.9-29.35-5.9-11.9,0-22.04,2.26-30.4,6.79-8.37,4.52-15.38,11.02-21.03,19.47v-23.86h-49.92v219.6h57.48v-86.86c4.64,8.46,11.19,14.9,19.66,19.33,8.47,4.43,18.46,6.64,29.95,6.64,13.11,0,24.76-3.54,34.94-10.62,10.18-7.08,18.2-16.72,24.05-28.91,5.85-12.2,8.77-26.06,8.77-41.61,0-11.61-1.82-22.23-5.45-31.87-3.63-9.64-8.77-18.09-15.43-25.37Zm-39.93,69.93c-1.41,4.03-3.43,7.58-6.05,10.66-2.62,3.07-5.7,5.47-9.23,7.2-3.53,1.73-7.41,2.59-11.65,2.59s-7.97-1-11.8-3c-3.83-2-7.31-4.75-10.44-8.27-3.13-3.52-5.6-7.46-7.41-11.84,0,0,0-26.85,0-26.85,1.82-2.62,3.78-4.86,5.9-6.73,2.12-1.87,4.28-3.41,6.5-4.63,2.22-1.21,4.59-2.15,7.11-2.8,2.52-.66,5.09-.98,7.71-.98,4.64,0,8.87,.77,12.71,2.31,3.83,1.54,7.16,3.69,9.98,6.48,2.82,2.78,4.99,6.1,6.5,9.94,1.51,3.84,2.27,8.17,2.27,12.97s-.71,8.93-2.12,12.96Z"/>
    <path class="cls-1" d="M910.84,97.37c-3.23-5.7-8.17-10.37-14.82-14.01-6.66-3.64-15.63-5.46-26.93-5.46s-21.23,2.21-30.4,6.64c-9.18,4.42-16.59,10.86-22.24,19.32V17h-57.48V236h57.48v-87.01c1.82-4.35,4.33-8.14,7.56-11.35,3.22-3.22,6.6-5.67,10.14-7.38,3.53-1.7,6.5-2.55,8.92-2.55,5.24,0,9.63,1.71,13.16,5.12,3.53,3.42,5.29,8.93,5.29,16.54v86.64h57.48v-102.06c0-5.7-.56-11.8-1.66-18.29-1.11-6.49-3.28-12.59-6.5-18.29Z"/>
    <path class="cls-1" d="M1457.06,127.91c-3.73-9.74-9.28-18.34-16.64-25.81-7.36-7.47-16.44-13.37-27.23-17.7-10.79-4.33-23.35-6.49-37.67-6.49s-26.62,2.17-37.51,6.49c-10.89,4.33-20.02,10.23-27.38,17.7-7.36,7.47-12.91,16.08-16.64,25.81-3.73,9.74-5.6,19.92-5.6,30.54s1.86,20.76,5.6,30.39c3.73,9.64,9.27,18.24,16.64,25.81,7.36,7.58,16.49,13.52,27.38,17.85,10.89,4.33,23.39,6.49,37.51,6.49s26.87-2.17,37.67-6.49c10.79-4.33,19.86-10.27,27.23-17.85,7.36-7.57,12.91-16.18,16.64-25.81,3.73-9.64,5.6-19.77,5.6-30.39s-1.87-20.8-5.6-30.54Zm-57.03,47.97c-2.42,4.9-5.75,8.64-9.98,11.24-4.24,2.59-9.08,3.89-14.52,3.89s-10.29-1.29-14.52-3.89c-4.24-2.59-7.56-6.34-9.98-11.24-2.42-4.89-3.63-10.71-3.63-17.43s1.21-12.53,3.63-17.43c2.42-4.89,5.75-8.64,9.98-11.23,4.24-2.59,9.08-3.89,14.52-3.89s10.29,1.3,14.52,3.89c4.24,2.59,7.56,6.34,9.98,11.23,2.42,4.9,3.63,10.71,3.63,17.43s-1.21,12.53-3.63,17.43Z"/>
    <path class="cls-1" d="M992.4,79.4c7.74,0,14-6.26,14.01-13.98,0-7.72-6.25-13.98-13.98-13.98-7.74,0-14,6.26-14.01,14,0,7.72,6.25,13.98,13.98,13.96Z"/>
    <path class="cls-1" d="M1195.52,80.3v24.45c-5.65-8.46-12.67-15.05-21.03-19.77-8.37-4.72-18.5-7.08-30.4-7.08-10.49,0-20.23,1.97-29.2,5.9-8.97,3.94-16.79,9.55-23.44,16.82-6.66,7.28-11.8,15.74-15.43,25.37-3.63,9.64-5.45,20.26-5.45,31.87s1.67,22.38,5,32.31c3.32,9.93,8.05,18.54,14.21,25.81,6.16,7.28,13.36,12.94,21.64,16.97,8.27,4.03,17.24,6.05,26.92,6.05,23.79,0,40.34-8.65,49.62-25.96,.21,6.15,.32,15.11-.26,25.96-.27,4.96-.31,8.45-1.01,13-.45,2.85-.99,5.44-1.53,7.66,.15-.57,.29-1.15,.43-1.73-.2,.89-.42,1.78-.66,2.66-.09,.36-.19,.72-.29,1.08-.01,.03-.02,.06-.02,.08-.9,3.21-1.99,6.34-3.25,9.38,0,.01,0,.02-.01,.03-.63,1.36-1.09,2.16-1.71,3.87,0,.01-.01,.02-.01,.03-2.14,4.51-4.66,8.81-7.52,12.84,0,0-.01,0-.01,.01-.05,.03-.08,.06-.11,.09-.29,.27-.51,.63-.67,.99h0c-15.29,20.86-39.79,34.39-67.34,34.39-44.85,0-81.83-34.65-84.2-78.88-.08-1.49-.12-3-.12-4.5v-17.62c4.36-28.42,21.29-53.09,21.29-53.09-26.73-20.58-40.93-58.36-46.76-77.77v45.5c3.3,1.3,5.64,4.5,5.65,8.26,0,4.91-4,8.89-8.9,8.89s-8.89-3.98-8.89-8.89c-.01-3.76,2.34-6.96,5.64-8.26v-45.5c-5.83,19.41-20.03,57.18-46.76,77.76,0,0,17.47,25.47,21.49,54.45v16.27c0,2.52,.06,5.07,.2,7.57,3.99,74.61,66.09,133.05,141.36,133.05,54.4,0,101.71-31.18,125.24-76.74,3.91-7.06,8.5-16.8,11.91-28.88,4.15-14.67,4.78-26.5,5.05-33,.97-24.25,1.1-83.17-.75-161.7h-49.92Zm-7.56,95.56c-2.42,3.37-5.04,6.17-7.87,8.41-2.83,2.24-5.86,3.93-9.07,5.05-3.23,1.12-6.66,1.68-10.29,1.68-6.25,0-11.76-1.34-16.49-4.03-4.74-2.69-8.43-6.39-11.04-11.09-2.62-4.71-3.93-10.23-3.93-16.57,0-4.6,.7-8.92,2.11-12.95,1.4-4.03,3.43-7.59,6.05-10.66,2.62-3.08,5.7-5.48,9.23-7.21,3.52-1.72,7.41-2.59,11.65-2.59,3.02,0,6,.52,8.92,1.57,2.92,1.05,5.7,2.56,8.32,4.56,2.62,1.99,5,4.37,7.11,7.12,2.12,2.76,3.89,5.75,5.3,8.97v27.74Zm-2.07,80.73c.39-1.8,.72-3.61,1-5.44-.27,1.83-.6,3.65-1,5.44Z"/>
  </g>
</svg>